Coordinates
version=1
nRows=18
nColumns=34
inDegrees=no

Units are S.I. units (second, meters, Newtons, ...)
If the header above contains a line with 'inDegrees', this indicates whether rotational values are in degrees (yes) or radians (no).

endheader
time	pelvis_tilt	pelvis_list	pelvis_rotation	pelvis_tx	pelvis_ty	pelvis_tz	hip_flexion_r	hip_adduction_r	hip_rotation_r	knee_angle_r	ankle_angle_r	subtalar_angle_r	mtp_angle_r	hip_flexion_l	hip_adduction_l	hip_rotation_l	knee_angle_l	ankle_angle_l	subtalar_angle_l	mtp_angle_l	lumbar_extension	lumbar_bending	lumbar_rotation	arm_flex_r	arm_add_r	arm_rot_r	elbow_flex_r	pro_sup_r	arm_flex_l	arm_add_l	arm_rot_l	elbow_flex_l	pro_sup_l
0	0.0884741	0.0623766	0.0507599	-0.164365	0.919624	-0.266058	0.406463	-0.082949	-0.221132	0.147601	0.159153	0.0691875	-0.0152834	-0.410553	0.0520191	-0.0936492	0.255481	0.334458	0.0658024	-0.0187178	-0.219516	-0.0394252	-0.146856	-0.258933	-0.0916922	-0.33299	0.53899	2.05658	0.331999	-0.197086	0.123688	1.06097	1.74736
0.01	0.0849719	0.0491941	0.049193	-0.146912	0.922607	-0.264234	0.411305	-0.0653462	-0.201849	0.169927	0.108998	0.0193398	-0.0152866	-0.407015	0.0321837	-0.105618	0.287749	0.313509	0.063786	-0.0187101	-0.209667	-0.0244371	-0.143301	-0.261037	-0.0943201	-0.33594	0.532338	2.05593	0.31665	-0.192957	0.119602	1.06146	1.7452
0.02	0.0813302	0.0361214	0.046979	-0.129711	0.925143	-0.262345	0.416709	-0.0482651	-0.185147	0.194688	0.0684156	-0.0252774	-0.0152897	-0.398983	0.0123393	-0.115399	0.32533	0.283003	0.0559712	-0.0187025	-0.200167	-0.00963575	-0.139143	-0.262466	-0.0970054	-0.338775	0.526935	2.0555	0.300526	-0.188193	0.114313	1.06047	1.74393
0.03	0.0775422	0.0231323	0.04413	-0.112785	0.927283	-0.260396	0.422599	-0.0316495	-0.170953	0.221709	0.0373227	-0.0647378	-0.0152928	-0.386404	-0.00755428	-0.123027	0.368266	0.243036	0.0424459	-0.0186949	-0.191017	0.00500531	-0.134385	-0.26321	-0.0997515	-0.341484	0.522794	2.05529	0.283647	-0.182791	0.107825	1.05797	1.74355
0.04	0.0735982	0.0101697	0.0406819	-0.0961595	0.929081	-0.258396	0.428756	-0.0153622	-0.159082	0.250493	0.0154461	-0.0992248	-0.0152959	-0.369172	-0.0275802	-0.128565	0.416594	0.193966	0.0234825	-0.0186872	-0.182233	0.019544	-0.129035	-0.263248	-0.102567	-0.344037	0.519948	2.0553	0.26609	-0.176757	0.100166	1.05388	1.74413
0.05	0.0694972	-0.00283151	0.0367049	-0.0798597	0.930598	-0.256354	0.434786	0.000787388	-0.149256	0.28017	0.00224245	-0.129003	-0.0152991	-0.347195	-0.0478197	-0.132072	0.470223	0.136602	-0.000392698	-0.0186796	-0.173853	0.0340464	-0.123114	-0.262547	-0.105468	-0.346367	0.518456	2.0555	0.248005	-0.170105	0.0914044	1.04805	1.74574
0.06	0.0652559	-0.0159047	0.0323122	-0.0639105	0.931895	-0.254284	0.440156	0.0169761	-0.141156	0.309579	-0.0031253	-0.154362	-0.0153022	-0.320472	-0.0682784	-0.133555	0.528805	0.0724058	-0.0283702	-0.0186719	-0.165943	0.0485455	-0.116665	-0.26107	-0.108476	-0.348363	0.518387	2.05584	0.229623	-0.162874	0.0816781	1.04029	1.74846
0.07	0.0609147	-0.0290084	0.027665	-0.0483325	0.933036	-0.252208	0.444275	0.0332841	-0.134491	0.337432	-0.0017396	-0.175561	-0.0153053	-0.28916	-0.0888109	-0.132943	0.59164	0.00362447	-0.059377	-0.0186642	-0.158592	0.0629952	-0.109773	-0.258779	-0.111622	-0.349856	0.519798	2.05626	0.211236	-0.155141	0.0712013	1.03038	1.75232
0.08	0.0565388	-0.0419934	0.0229739	-0.033139	0.934081	-0.250158	0.446581	0.0496227	-0.129049	0.362518	0.00517782	-0.192785	-0.0153085	-0.253601	-0.109069	-0.13009	0.657671	-0.0667066	-0.0921457	-0.0186566	-0.151897	0.0772351	-0.102574	-0.255639	-0.11494	-0.350624	0.522704	2.0567	0.193169	-0.147029	0.0602673	1.01806	1.75726
0.09	0.0522151	-0.0545921	0.018492	-0.018335	0.935087	-0.24817	0.446631	0.0656988	-0.12473	0.383898	0.0163954	-0.206135	-0.0153116	-0.214313	-0.128493	-0.124814	0.725542	-0.134933	-0.125321	-0.0186489	-0.145946	0.0909784	-0.0952597	-0.25162	-0.118462	-0.350403	0.527053	2.05711	0.175738	-0.138711	0.0492348	1.00315	1.76311
0.1	0.0480392	-0.0664364	0.0144989	-0.00391674	0.936101	-0.246285	0.444159	0.0810317	-0.121546	0.40102	0.0307853	-0.215643	-0.0153147	-0.171949	-0.146356	-0.116955	0.793713	-0.197134	-0.157583	-0.0186413	-0.140808	0.10383	-0.088077	-0.246697	-0.122214	-0.348905	0.532711	2.05745	0.159212	-0.1304	0.0384958	0.98551	1.7696
0.11	0.0441027	-0.0771058	0.011276	0.0101281	0.937164	-0.24454	0.439093	0.0950202	-0.119597	0.413754	0.0473941	-0.221309	-0.0153179	-0.12723	-0.161853	-0.106452	0.860601	-0.249613	-0.187767	-0.0186336	-0.136517	0.115336	-0.0813043	-0.240843	-0.126214	-0.34585	0.539461	2.05771	0.143784	-0.122342	0.0284285	0.965084	1.77636
0.12	0.0404856	-0.0861939	0.00907071	0.0238196	0.938305	-0.242967	0.43154	0.107046	-0.119022	0.422332	0.0654612	-0.223155	-0.015321	-0.080894	-0.174218	-0.0934074	0.924697	-0.289423	-0.214953	-0.018626	-0.133061	0.125046	-0.0752227	-0.234031	-0.130465	-0.34099	0.547021	2.0579	0.129543	-0.114784	0.0193454	0.941926	1.78303
0.13	0.0372445	-0.0933712	0.00805529	0.0371825	0.939546	-0.241583	0.421731	0.116591	-0.119937	0.427235	0.0843941	-0.221277	-0.0153241	-0.033646	-0.182845	-0.0781227	0.984664	-0.314817	-0.238511	-0.0186183	-0.130386	0.132588	-0.0700739	-0.226236	-0.134962	-0.334148	0.555084	2.05801	0.116474	-0.107949	0.0114497	0.916195	1.78926
0.14	0.034406	-0.0984347	0.0082901	0.0502469	0.940901	-0.240391	0.409966	0.12333	-0.122365	0.429048	0.103721	-0.215891	-0.0153273	0.0138577	-0.187376	-0.0611036	1.03938	-0.325495	-0.258105	-0.0186106	-0.128404	0.137724	-0.066016	-0.217444	-0.139685	-0.325238	0.563351	2.05808	0.10446	-0.102016	0.00481039	0.888156	1.79482
0.15	0.0319685	-0.101333	0.00969814	0.0630458	0.942375	-0.239377	0.39654	0.127198	-0.126181	0.428332	0.123038	-0.207359	-0.0153304	0.0610154	-0.187756	-0.0430281	1.08797	-0.322586	-0.273659	-0.018603	-0.127009	0.140381	-0.0630876	-0.207655	-0.144611	-0.314285	0.571579	2.05809	0.0933014	-0.0970985	-0.000640321	0.858169	1.79957
0.16	0.0299125	-0.102166	0.012058	0.0756157	0.943965	-0.238515	0.381702	0.128394	-0.131082	0.42553	0.141977	-0.196192	-0.0153335	0.107273	-0.184232	-0.024688	1.12977	-0.308372	-0.285295	-0.0185953	-0.126096	0.140657	-0.06119	-0.196895	-0.149709	-0.301432	0.579606	2.05809	0.0827421	-0.0932399	-0.00508799	0.826677	1.8035
0.17	0.0282116	-0.10116	0.0150193	0.0879949	0.945665	-0.237766	0.365623	0.127345	-0.136594	0.420931	0.16019	-0.183015	-0.0153367	0.152118	-0.177318	-0.0069133	1.16436	-0.28583	-0.29327	-0.0185876	-0.125579	0.138791	-0.0600929	-0.185215	-0.154946	-0.286929	0.587367	2.05806	0.0724949	-0.0904202	-0.00880252	0.794183	1.8067
